<svg id="svg" version="1.1" xmlns="http://www.w3.org/2000/svg" xmlns:xlink="http://www.w3.org/1999/xlink" width="400" height="369.29761042722663" viewBox="0, 0, 400,369.29761042722663"><g id="svgg"><path id="path0" d="M0.000 184.649 L 0.000 369.298 200.000 369.298 L 400.000 369.298 400.000 184.649 L 400.000 0.000 200.000 0.000 L 0.000 0.000 0.000 184.649 M344.883 25.486 C 364.424 29.005,377.756 44.719,377.814 64.301 L 377.830 69.660 358.800 193.049 C 346.161 275.002,339.536 317.220,339.071 318.768 C 334.806 332.975,324.608 342.708,309.875 346.630 L 306.879 347.427 180.883 347.509 C 40.681 347.600,52.558 347.764,46.054 345.649 C 29.344 340.217,18.679 325.557,18.694 308.038 L 18.699 302.824 37.726 179.435 C 57.056 54.084,57.074 53.977,59.054 49.220 C 64.131 37.025,75.957 27.540,88.631 25.497 C 89.826 25.304,90.999 25.109,91.238 25.062 C 93.811 24.558,342.033 24.973,344.883 25.486 M194.062 79.101 C 144.875 83.349,119.798 111.734,127.613 154.316 C 131.808 177.171,144.971 190.139,180.159 206.082 C 201.865 215.916,206.313 218.302,210.692 222.462 C 218.116 229.514,216.228 240.460,206.807 244.982 C 192.543 251.829,158.823 246.460,129.705 232.705 C 127.204 231.524,125.086 230.558,124.998 230.558 C 124.909 230.558,124.837 241.813,124.837 255.570 L 124.837 280.582 127.458 281.800 C 146.074 290.449,161.951 293.555,187.545 293.555 C 201.826 293.555,206.821 293.102,216.507 290.926 C 254.012 282.500,275.288 254.421,271.137 218.827 C 268.282 194.340,255.591 180.783,220.565 164.802 C 187.478 149.706,181.155 144.887,182.449 135.750 C 184.712 119.765,214.789 119.854,251.352 135.953 C 254.320 137.260,254.334 137.263,254.584 136.627 C 254.722 136.276,258.118 127.712,262.132 117.596 C 266.145 107.480,269.921 97.950,270.521 96.417 L 271.614 93.631 266.509 91.579 C 241.287 81.440,216.472 77.165,194.062 79.101 " stroke="none" fill="#fbfbfb" fill-rule="evenodd"></path><path id="path1" d="M90.988 25.238 C 74.094 27.017,59.694 40.601,56.640 57.639 C 56.397 58.993,47.764 114.844,37.456 181.752 L 18.713 303.403 18.720 308.038 C 18.751 327.836,32.819 344.076,52.571 347.115 C 56.629 347.739,304.650 347.677,307.635 347.051 C 324.137 343.589,336.307 331.880,339.604 316.293 C 340.480 312.149,377.735 69.002,377.894 66.387 C 379.084 46.843,365.618 30.064,345.112 25.538 C 342.791 25.025,95.773 24.734,90.988 25.238 M217.524 79.086 C 230.667 80.185,244.714 83.334,258.364 88.242 C 262.718 89.808,271.154 93.218,271.501 93.551 C 271.704 93.747,254.918 136.779,254.459 137.237 C 254.382 137.315,252.068 136.425,249.317 135.259 C 211.977 119.432,182.621 120.334,182.621 137.307 C 182.621 145.864,187.595 149.419,221.289 164.946 C 260.096 182.829,272.313 198.444,271.606 229.254 C 270.581 273.870,231.565 298.642,170.746 293.292 C 155.021 291.909,143.693 289.049,129.523 282.887 L 124.692 280.786 124.618 255.527 C 124.568 238.443,124.640 230.268,124.841 230.268 C 125.004 230.268,126.446 230.925,128.047 231.728 C 155.697 245.604,192.432 251.749,206.701 244.885 C 215.699 240.558,217.788 229.739,210.947 222.898 C 206.761 218.712,202.688 216.525,179.001 205.744 C 142.887 189.309,129.886 175.382,126.730 149.755 C 120.907 102.463,157.396 74.061,217.524 79.086 " stroke="none" fill="#e4943c" fill-rule="evenodd"></path><path id="path2" d="M256.481 187.111 C 257.427 188.067,258.266 188.849,258.345 188.849 C 258.425 188.849,257.716 188.067,256.770 187.111 C 255.825 186.155,254.986 185.373,254.906 185.373 C 254.826 185.373,255.535 186.155,256.481 187.111 M271.484 223.606 C 271.484 224.482,271.539 224.841,271.605 224.403 C 271.671 223.965,271.671 223.248,271.605 222.810 C 271.539 222.371,271.484 222.730,271.484 223.606 M271.480 231.282 C 271.483 232.078,271.539 232.370,271.605 231.929 C 271.672 231.489,271.670 230.837,271.601 230.481 C 271.533 230.125,271.478 230.485,271.480 231.282 M185.735 247.846 C 186.014 247.919,186.470 247.919,186.749 247.846 C 187.028 247.773,186.799 247.714,186.242 247.714 C 185.684 247.714,185.456 247.773,185.735 247.846 M255.594 269.732 L 254.743 270.673 255.684 269.823 C 256.202 269.355,256.626 268.931,256.626 268.881 C 256.626 268.658,256.387 268.855,255.594 269.732 M176.615 293.615 C 176.975 293.685,177.496 293.682,177.773 293.610 C 178.050 293.537,177.755 293.480,177.118 293.484 C 176.481 293.487,176.254 293.546,176.615 293.615 " stroke="none" fill="#bcafaa" fill-rule="evenodd"></path><path id="path3" d="M91.890 25.109 C 92.169 25.182,92.625 25.182,92.904 25.109 C 93.182 25.036,92.954 24.977,92.397 24.977 C 91.839 24.977,91.611 25.036,91.890 25.109 M340.843 25.114 C 341.204 25.184,341.725 25.181,342.002 25.108 C 342.279 25.036,341.984 24.979,341.347 24.983 C 340.710 24.986,340.483 25.045,340.843 25.114 M365.243 35.427 C 365.243 35.477,365.666 35.901,366.184 36.369 L 367.125 37.219 366.275 36.278 C 365.482 35.401,365.243 35.204,365.243 35.427 M303.621 347.484 C 303.899 347.557,304.356 347.557,304.634 347.484 C 304.913 347.411,304.685 347.352,304.127 347.352 C 303.570 347.352,303.342 347.411,303.621 347.484 " stroke="none" fill="#f4c48c" fill-rule="evenodd"></path><path id="path4" d="M203.259 78.707 C 204.095 78.766,205.463 78.766,206.300 78.707 C 207.136 78.649,206.452 78.601,204.779 78.601 C 203.106 78.601,202.422 78.649,203.259 78.707 M198.917 124.173 C 199.278 124.242,199.799 124.240,200.076 124.167 C 200.353 124.095,200.058 124.038,199.421 124.041 C 198.783 124.044,198.557 124.104,198.917 124.173 M207.024 124.173 C 207.382 124.242,207.969 124.242,208.327 124.173 C 208.686 124.104,208.392 124.047,207.676 124.047 C 206.959 124.047,206.665 124.104,207.024 124.173 M126.352 146.271 C 126.352 146.828,126.412 147.056,126.485 146.778 C 126.558 146.499,126.558 146.043,126.485 145.764 C 126.412 145.485,126.352 145.713,126.352 146.271 M124.616 255.378 C 124.578 269.267,124.645 280.692,124.765 280.766 C 124.961 280.888,124.960 263.134,124.760 239.247 C 124.718 234.229,124.653 241.488,124.616 255.378 M215.006 232.440 C 215.008 233.396,215.062 233.752,215.127 233.232 C 215.191 232.711,215.190 231.929,215.124 231.494 C 215.058 231.058,215.005 231.484,215.006 232.440 M210.988 241.926 L 210.138 242.867 211.079 242.017 C 211.597 241.549,212.020 241.125,212.020 241.075 C 212.020 240.852,211.781 241.049,210.988 241.926 M187.618 247.851 C 187.976 247.920,188.563 247.920,188.921 247.851 C 189.280 247.782,188.986 247.726,188.269 247.726 C 187.552 247.726,187.259 247.782,187.618 247.851 M191.818 247.846 C 192.096 247.919,192.552 247.919,192.831 247.846 C 193.110 247.773,192.882 247.714,192.324 247.714 C 191.767 247.714,191.539 247.773,191.818 247.846 M174.728 293.610 C 175.007 293.683,175.463 293.683,175.742 293.610 C 176.021 293.537,175.793 293.478,175.235 293.478 C 174.678 293.478,174.450 293.537,174.728 293.610 M185.156 293.916 C 186.868 293.968,189.671 293.968,191.383 293.916 C 193.096 293.865,191.694 293.823,188.269 293.823 C 184.844 293.823,183.443 293.865,185.156 293.916 " stroke="none" fill="#bc9881" fill-rule="evenodd"></path></g></svg>